<?xml version="1.0" standalone="no"?>
<!DOCTYPE svg PUBLIC "-//W3C//DTD SVG 20010904//EN"
 "http://www.w3.org/TR/2001/REC-SVG-20010904/DTD/svg10.dtd">
<svg version="1.0" xmlns="http://www.w3.org/2000/svg"
 width="1080.000000pt" height="1080.000000pt" viewBox="0 0 1080.000000 1080.000000"
 preserveAspectRatio="xMidYMid meet">
<metadata>
Created by potrace 1.14, written by Peter Selinger 2001-2017
</metadata>
<g transform="translate(0.000000,1080.000000) scale(0.100000,-0.100000)"
fill="#000000" stroke="none">
<path d="M5159 10175 c-2 -1 -42 -6 -89 -9 -47 -3 -103 -8 -125 -11 -97 -12
-122 -15 -145 -19 -14 -2 -47 -7 -75 -11 -75 -11 -81 -12 -200 -39 -90 -20
-175 -41 -240 -60 -5 -2 -23 -6 -40 -10 -53 -14 -189 -57 -221 -72 -17 -7 -40
-15 -50 -17 -11 -2 -32 -9 -47 -15 -16 -7 -52 -22 -80 -33 -29 -12 -66 -27
-82 -35 -64 -28 -90 -37 -97 -36 -5 1 -8 -3 -8 -9 0 -5 -4 -7 -10 -4 -5 3 -10
2 -10 -3 0 -9 -27 -22 -55 -27 -5 -1 -28 -12 -50 -26 -22 -13 -42 -24 -45 -25
-12 -2 -45 -18 -50 -24 -3 -4 -18 -13 -35 -21 -67 -34 -150 -83 -153 -90 -2
-5 -7 -9 -12 -9 -10 0 -148 -84 -175 -108 -11 -9 -32 -23 -46 -30 -15 -8 -37
-24 -51 -37 -13 -12 -42 -34 -64 -48 -21 -14 -51 -36 -66 -49 -15 -13 -40 -33
-55 -45 -124 -96 -380 -341 -503 -482 -30 -35 -65 -74 -77 -87 -13 -13 -23
-27 -23 -33 0 -5 -4 -11 -8 -13 -4 -1 -23 -23 -42 -48 -19 -25 -37 -47 -40
-50 -3 -3 -31 -41 -63 -85 -31 -44 -61 -86 -67 -92 -6 -7 -7 -13 -3 -13 4 0 2
-4 -6 -9 -7 -5 -23 -24 -35 -44 -11 -19 -41 -68 -65 -109 -24 -40 -49 -76 -55
-80 -6 -4 -7 -8 -2 -8 5 0 3 -8 -5 -17 -8 -10 -28 -45 -44 -78 -17 -33 -32
-62 -35 -65 -5 -5 -72 -139 -75 -150 -1 -3 -11 -26 -23 -52 -45 -99 -64 -141
-83 -196 -11 -32 -25 -66 -30 -77 -18 -38 -78 -225 -72 -225 3 0 0 -7 -7 -15
-6 -8 -9 -19 -5 -25 3 -5 1 -10 -6 -10 -7 0 -9 -3 -6 -6 3 -4 2 -14 -3 -24 -5
-9 -12 -30 -15 -46 -8 -39 -13 -59 -15 -59 -1 0 -3 -7 -5 -15 -2 -8 -6 -28
-10 -45 -3 -16 -7 -37 -9 -45 -1 -8 -5 -26 -9 -40 -4 -14 -9 -36 -11 -50 -3
-14 -8 -36 -11 -50 -3 -14 -8 -38 -10 -55 -2 -16 -7 -46 -10 -65 -3 -19 -7
-46 -8 -60 -2 -14 -5 -30 -8 -35 -3 -6 -5 -27 -4 -47 0 -21 -3 -38 -6 -38 -4
0 -6 -20 -5 -45 1 -25 -1 -45 -4 -45 -23 0 -18 -636 6 -855 3 -27 7 -63 9 -80
2 -16 4 -30 5 -30 1 0 3 -11 5 -25 18 -128 22 -155 29 -185 2 -11 12 -56 21
-100 24 -111 32 -148 35 -152 2 -2 4 -7 5 -13 1 -5 4 -13 5 -17 1 -5 2 -11 1
-15 0 -4 6 -25 14 -48 8 -23 14 -44 13 -48 -1 -4 3 -16 9 -27 6 -11 11 -23 12
-27 2 -13 6 -27 13 -48 22 -59 60 -177 61 -187 0 -7 4 -13 9 -13 4 0 7 -3 6
-7 -1 -5 6 -26 16 -48 10 -22 19 -47 21 -56 9 -45 231 -490 248 -497 4 -2 7
-8 7 -12 0 -12 83 -144 92 -148 5 -2 8 -10 8 -18 0 -8 3 -14 8 -14 4 0 13 -13
20 -28 6 -16 21 -38 32 -50 11 -12 20 -24 20 -27 0 -8 156 -214 195 -258 11
-12 42 -49 70 -82 77 -93 116 -132 1661 -1675 1538 -1537 1480 -1480 1487
-1480 3 0 146 142 247 247 22 23 40 40 40 39 0 -3 2756 2756 2799 2803 23 25
55 62 72 82 17 21 38 47 47 57 10 11 28 34 42 53 14 18 33 41 43 51 9 10 17
20 17 23 0 3 5 11 10 18 37 44 50 61 50 66 0 3 11 18 25 33 14 15 26 31 26 35
0 5 9 18 19 31 11 12 20 27 20 32 0 6 5 10 10 10 6 0 10 5 10 12 0 6 11 26 25
44 14 18 25 35 25 39 0 3 12 24 27 48 15 23 33 51 39 62 6 11 23 41 37 66 51
89 137 263 137 275 0 7 3 14 8 16 8 3 12 13 80 183 53 133 55 138 58 155 2 8
7 23 12 35 22 45 57 163 54 178 -1 4 2 7 6 7 5 0 9 6 10 13 0 6 3 22 6 35 6
22 14 55 21 82 2 8 4 16 5 18 3 2 2 1 15 57 5 22 9 42 10 45 1 3 5 23 10 45 4
22 10 44 13 49 3 5 6 23 7 40 1 17 5 45 8 61 4 17 10 46 13 65 3 19 7 46 9 60
10 63 16 119 20 170 2 30 5 55 6 55 6 0 12 182 12 380 1 211 -3 303 -19 455
-4 30 -7 65 -7 78 -1 12 -3 22 -7 22 -3 0 -6 12 -6 28 -1 30 -6 64 -23 166 -7
38 -14 72 -15 75 -2 3 -7 24 -10 46 -4 22 -9 48 -12 57 -3 9 -7 26 -9 37 -3
12 -7 29 -9 39 -2 10 -11 42 -20 70 -8 29 -12 52 -9 52 3 0 -1 7 -8 17 -8 9
-12 17 -10 17 2 1 -3 21 -10 46 -15 55 -14 52 -22 70 -3 8 -20 58 -38 110 -17
52 -38 107 -46 122 -7 15 -13 29 -12 30 1 4 -18 53 -40 101 -28 63 -54 121
-56 127 -8 30 -177 344 -187 348 -5 2 -8 8 -8 13 0 6 -8 22 -18 37 -11 15 -38
56 -60 92 -23 36 -46 70 -50 76 -5 6 -27 37 -48 70 -21 32 -41 61 -44 64 -3 3
-39 48 -80 100 -41 52 -77 97 -80 100 -3 3 -34 39 -70 80 -116 135 -334 346
-470 456 -19 16 -37 31 -40 34 -9 10 -202 153 -250 185 -25 17 -54 38 -64 48
-11 9 -23 17 -27 17 -5 0 -28 14 -52 30 -25 17 -50 30 -56 30 -6 0 -11 3 -11
8 0 4 -17 16 -37 27 -21 11 -56 30 -78 44 -68 42 -304 156 -432 210 -105 44
-386 144 -440 156 -10 3 -70 18 -133 35 -63 16 -131 33 -150 36 -19 3 -44 8
-55 11 -22 7 -55 13 -97 16 -16 1 -28 4 -28 7 0 3 -8 6 -17 7 -20 1 -88 9
-148 19 -22 3 -60 8 -85 10 -25 2 -61 6 -80 9 -38 6 -606 16 -611 10z m411
-2975 c14 -5 58 -14 98 -21 39 -7 72 -17 72 -22 0 -6 3 -8 6 -4 7 6 68 -14
131 -43 24 -11 47 -20 53 -20 5 0 10 -5 10 -12 0 -6 3 -9 6 -5 3 3 36 -13 73
-35 146 -91 288 -229 372 -362 21 -33 43 -66 49 -73 5 -7 10 -17 10 -22 0 -6
9 -27 21 -47 23 -42 71 -164 63 -164 -2 0 0 -10 7 -21 6 -12 12 -31 14 -43 3
-20 9 -48 21 -103 8 -40 12 -323 4 -323 -4 0 -6 -11 -5 -25 2 -14 -1 -27 -6
-31 -5 -3 -7 -9 -5 -13 3 -4 0 -27 -6 -52 -5 -24 -11 -48 -12 -54 -18 -84 -89
-234 -171 -360 -43 -67 -242 -269 -274 -280 -12 -3 -21 -11 -21 -16 0 -5 -7
-9 -15 -9 -8 0 -15 -3 -15 -8 0 -9 -8 -13 -123 -70 -47 -24 -88 -42 -90 -40
-2 2 -11 -3 -20 -11 -10 -7 -17 -10 -17 -6 0 4 -6 3 -13 -3 -7 -6 -27 -13 -44
-17 -18 -3 -45 -10 -60 -16 -15 -6 -29 -10 -31 -9 -1 0 -17 -1 -35 -4 -91 -15
-120 -17 -212 -17 -94 -1 -148 4 -220 16 -77 14 -91 18 -106 26 -9 4 -27 10
-40 13 -13 2 -37 10 -54 17 -16 7 -32 13 -35 14 -3 1 -23 10 -45 20 -22 10
-43 17 -47 17 -5 -1 -8 2 -8 8 0 5 -5 10 -11 10 -10 0 -149 86 -159 99 -3 3
-25 22 -50 41 -25 19 -47 38 -49 43 -2 5 -15 19 -28 31 -58 50 -227 286 -206
286 5 0 3 4 -2 8 -12 8 -75 153 -81 185 -1 4 -2 8 -4 10 -1 1 -3 9 -5 17 -2 8
-10 44 -18 79 -8 35 -14 80 -13 101 0 21 -2 36 -6 34 -16 -10 2 302 19 346 3
8 7 26 8 40 1 14 7 37 13 53 7 15 9 27 6 27 -2 0 1 10 8 23 6 12 13 27 14 33
1 5 13 36 28 67 14 32 26 62 26 67 0 6 5 10 10 10 6 0 10 5 10 11 0 26 121
190 199 267 139 140 285 230 472 293 95 32 105 34 194 45 28 4 52 8 54 10 7 7
267 1 291 -6z"/>
</g>
</svg>
