<?xml version="1.0" encoding="UTF-8" standalone="no"?>
<svg
   width="541.80078pt"
   height="159.69922pt"
   viewBox="0 0 541.80079 159.69922"
   version="1.2"
   id="svg37"
   sodipodi:docname="Motoriste_modre.svg"
   inkscape:version="1.1.2 (b8e25be833, 2022-02-05)"
   xmlns:inkscape="http://www.inkscape.org/namespaces/inkscape"
   xmlns:sodipodi="http://sodipodi.sourceforge.net/DTD/sodipodi-0.dtd"
   xmlns="http://www.w3.org/2000/svg"
   xmlns:svg="http://www.w3.org/2000/svg">
  <defs
     id="defs41" />
  <sodipodi:namedview
     id="namedview39"
     pagecolor="#505050"
     bordercolor="#eeeeee"
     borderopacity="1"
     inkscape:pageshadow="0"
     inkscape:pageopacity="0"
     inkscape:pagecheckerboard="0"
     inkscape:document-units="pt"
     showgrid="false"
     fit-margin-top="0"
     fit-margin-left="0"
     fit-margin-right="0"
     fit-margin-bottom="0"
     inkscape:zoom="1.4463296"
     inkscape:cx="356.76515"
     inkscape:cy="107.16783"
     inkscape:window-width="1920"
     inkscape:window-height="1017"
     inkscape:window-x="-8"
     inkscape:window-y="-8"
     inkscape:window-maximized="1"
     inkscape:current-layer="svg37" />
  <g
     id="surface7071"
     transform="translate(-30.199219,-20.5)">
    <path
       style="fill:#009ee3;fill-opacity:1;fill-rule:nonzero;stroke:none"
       d="M 101.5,38.800781 H 87.101562 l -21,35.5 L 44.5,38.800781 H 30.199219 V 100.19922 H 46.300781 V 68.5 L 62,94.199219 h 7.699219 l 15.800781,-26.5 0.199219,32.601561 h 16.000001 z m 0,0"
       id="path2" />
    <path
       style="fill:#009ee3;fill-opacity:1;fill-rule:nonzero;stroke:none"
       d="m 128.39844,71.101562 -17.59766,-0.402343 c 0.5,16.199219 12.39844,28.402343 29.09766,30.500001 l 0.70312,-14.597658 c -6.70312,-1.800781 -11.70312,-7.402343 -12.20312,-15.5 m 33,0 c -0.59766,8.199219 -5.69922,14 -12.69922,15.5 l 0.69922,14.597658 c 16.90234,-1.898439 29,-14.097658 29.60156,-30.500001 z m -16.5,-33.5 c -16.5,0 -29.39844,9.5 -33.09766,23.5 l 17.39844,2.097657 C 131.5,56.199219 137.5,52 144.80078,52 c 7.30078,0 13.30078,4.300781 15.59766,11.199219 l 17.5,-2.097657 c -3.59766,-14 -16.5,-23.5 -33,-23.5"
       id="path4" />
    <path
       style="fill:#009ee3;fill-opacity:1;fill-rule:nonzero;stroke:none"
       d="m 181.5,38.800781 v 13.800781 h 18.89844 v 47.597658 h 17.40234 V 52.601562 h 18.80078 V 38.800781 Z m 0,0"
       id="path6" />
    <path
       style="fill:#009ee3;fill-opacity:1;fill-rule:nonzero;stroke:none"
       d="m 273.10156,87.101562 c -9.30078,0 -16.60156,-6.902343 -16.60156,-17.5 C 256.5,59 263.80078,52 273.10156,52 c 9.29688,0 16.59766,6.898438 16.59766,17.601562 0,10.5 -7.30078,17.5 -16.59766,17.5 m 0,-49.5 C 253.39844,37.601562 239,51.101562 239,69.5 c 0,18.398438 14.5,31.89844 34.10156,31.89844 19.69922,0 34.09766,-13.500002 34.09766,-31.89844 0,-18.398438 -14.39844,-31.898438 -34.09766,-31.898438"
       id="path8" />
    <path
       style="fill:#009ee3;fill-opacity:1;fill-rule:nonzero;stroke:none"
       d="m 343.39844,70.5 h -9.59766 v -18 h 9.59766 c 7.20312,0 10.80078,3.300781 10.80078,9 0,5.601562 -3.59766,9 -10.80078,9 m 16.30078,10.398438 c 7.60156,-3.699219 12,-10.296876 12,-19.398438 0,-14 -10.5,-22.699219 -27.30078,-22.699219 h -28.09766 v 61.398439 h 17.39844 V 83.898438 h 9.5 l 11.10156,16.300782 H 373 Z m 0,0"
       id="path10" />
    <path
       style="fill:#009ee3;fill-opacity:1;fill-rule:nonzero;stroke:none"
       d="m 381.30078,100.19922 h 17.39844 V 38.800781 h -17.39844 z m 0,0"
       id="path12" />
    <path
       style="fill:#009ee3;fill-opacity:1;fill-rule:nonzero;stroke:none"
       d="m 425,56.601562 c 0,-3.101562 2.60156,-5.5 9.89844,-5.5 5.40234,0 11.10156,1.597657 17,4.699219 l 5.30078,-12.902343 c -6.09766,-3.5 -14.30078,-5.296876 -22.30078,-5.296876 -18.19922,0 -27.19922,8.898438 -27.19922,19.898438 0,22.800781 34.90234,15.699219 34.90234,25.398438 0,3 -2.80078,5 -10,5 -7.10156,0 -14.80078,-2.5 -20.30078,-6.097657 l -5.69922,12.800781 c 5.79688,4 15.79688,6.796878 25.89844,6.796878 18.30078,0 27.19922,-9.097659 27.19922,-19.796878 C 459.80078,59 425,66 425,56.601562"
       id="path14" />
    <path
       style="fill:#009ee3;fill-opacity:1;fill-rule:nonzero;stroke:none"
       d="M 461.19922,38.800781 V 52.601562 H 480 v 47.597658 h 17.39844 V 52.601562 h 18.80078 V 38.800781 Z m 0,0"
       id="path16" />
    <path
       style="fill:#009ee3;fill-opacity:1;fill-rule:nonzero;stroke:none"
       d="M 539.89844,86.800781 V 75.601562 h 27.30078 v -13 H 539.89844 V 52.199219 h 31 V 38.800781 H 522.69922 V 100.19922 H 572 V 86.800781 Z M 550,20.5 538.19922,33.800781 h 11.90234 L 566.60156,20.5 Z m 0,0"
       id="path18" />
    <path
       style="fill:#009ee3;fill-opacity:1;fill-rule:nonzero;stroke:none"
       d="m 31.199219,173.69922 2.902343,-5.09766 C 38,171.60156 44.5,174 51.300781,174 c 9.199219,0 12.898438,-3.10156 12.898438,-7.89844 0,-12.60156 -31.300781,-2.70312 -31.300781,-21.70312 0,-7.89844 6.800781,-13.79688 19.101562,-13.79688 6.199219,0 13,1.69922 17.101562,4.5 l -2.800781,5.19922 C 62.101562,137.39844 57,136.19922 52.101562,136.19922 c -8.703124,0 -12.601562,3.40234 -12.601562,8 0,13 31.300781,3.19922 31.300781,21.69922 0,8.40234 -7.300781,13.80078 -19.902343,13.80078 -8.097657,0 -15.796876,-2.59766 -19.699219,-6"
       id="path20" />
    <path
       style="fill:none;stroke:#009ee3;stroke-width:1;stroke-linecap:butt;stroke-linejoin:miter;stroke-miterlimit:10;stroke-opacity:1"
       d="M -7.8125e-4,7.8125e-4 2.901563,5.098438 C 6.8,2.098438 13.3,-0.3 20.100781,-0.3 29.3,-0.3 32.999219,2.801563 32.999219,7.598438 32.999219,20.2 1.698438,10.301563 1.698438,29.301563 1.698438,37.2 8.499219,43.098438 20.8,43.098438 c 6.199219,0 13,-1.699219 17.101562,-4.5 L 35.100781,33.399219 C 30.901563,36.301563 25.8,37.500781 20.901563,37.500781 c -8.703125,0 -12.601563,-3.402343 -12.601563,-8 0,-13 31.300781,-3.199218 31.300781,-21.699218 0,-8.402344 -7.300781,-13.800782 -19.902343,-13.800782 -8.097657,0 -15.796875,2.597657 -19.69921925,6.00000025 z m 0,0"
       transform="matrix(1,0,0,-1,31.2,173.7)"
       id="path22" />
    <path
       style="fill:#009ee3;fill-opacity:1;fill-rule:nonzero;stroke:none"
       d="m 122.39844,155.10156 c 0,-11.30078 -7.59766,-18.80078 -17.89844,-18.80078 -10.300781,0 -18,7.5 -18,18.80078 0,11.29688 7.699219,18.79688 18,18.79688 10.30078,0 17.89844,-7.5 17.89844,-18.79688 m -42.500002,0 c 0,-14.30078 10.5,-24.5 24.601562,-24.5 14.10156,0 24.5,10.19922 24.5,24.5 0,14.29688 -10.39844,24.59766 -24.5,24.59766 -14.101562,0 -24.601562,-10.30078 -24.601562,-24.59766"
       id="path24" />
    <path
       style="fill:none;stroke:#009ee3;stroke-width:1;stroke-linecap:butt;stroke-linejoin:miter;stroke-miterlimit:10;stroke-opacity:1"
       d="m -0.0015625,-0.0015625 c 0,11.3007815 -7.5976565,18.8007815 -17.8984375,18.8007815 -10.300781,0 -18,-7.5 -18,-18.8007815 0,-11.2968745 7.699219,-18.7968745 18,-18.7968745 10.300781,0 17.8984375,7.5 17.8984375,18.7968745 z m -42.5000005,0 c 0,14.3007815 10.5,24.5000005 24.601563,24.5000005 14.101562,0 24.5,-10.199219 24.5,-24.5000005 0,-14.2968745 -10.398438,-24.5976565 -24.5,-24.5976565 -14.101563,0 -24.601563,10.300782 -24.601563,24.5976565 z m 0,0"
       transform="matrix(1,0,0,-1,122.4,155.1)"
       id="path26" />
    <path
       style="fill:#009ee3;fill-opacity:1;fill-rule:nonzero;stroke:none"
       d="m 183.69922,155.10156 c 0,-11.30078 -7.80078,-18.80078 -18,-18.80078 -10.30078,0 -18,7.5 -18,18.80078 0,11.29688 7.69922,18.79688 18,18.79688 10.19922,0 18,-7.5 18,-18.79688 m 6.5,0 c 0,14.59766 -10.30078,24.59766 -24,24.59766 -8,0 -14.69922,-3.5 -18.59766,-10 v 9.5 h -6.20312 v -68.09766 h 6.5 v 29 c 4,-6.20312 10.60156,-9.5 18.40234,-9.5 13.59766,0 23.89844,9.89844 23.89844,24.5"
       id="path28" />
    <path
       style="fill:none;stroke:#009ee3;stroke-width:1;stroke-linecap:butt;stroke-linejoin:miter;stroke-miterlimit:10;stroke-opacity:1"
       d="m -7.8125e-4,-0.0015625 c 0,11.3007815 -7.80078075,18.8007815 -17.99999975,18.8007815 -10.300781,0 -18,-7.5 -18,-18.8007815 0,-11.2968745 7.699219,-18.7968745 18,-18.7968745 10.199219,0 17.99999975,7.5 17.99999975,18.7968745 z m 6.50000025,0 c 0,-14.5976565 -10.300781,-24.5976565 -24,-24.5976565 -8,0 -14.699219,3.5 -18.597656,10 v -9.5 h -6.203125 v 68.097657 h 6.5 v -29 c 4,6.203125 10.601562,9.5 18.402343,9.5 13.597657,0 23.898438,-9.898438 23.898438,-24.5000005 z m 0,0"
       transform="matrix(1,0,0,-1,183.7,155.1)"
       id="path30" />
    <path
       style="fill:#009ee3;fill-opacity:1;fill-rule:nonzero;stroke:none"
       d="m 219.89844,123.5 -11.79688,-11.39844 h 6.09766 l 9.10156,7.5 9.09766,-7.5 H 238.5 L 226.69922,123.5 Z m -13.69922,28.80078 h 34.19922 c -0.79688,-9.5 -7.69922,-16.10156 -17.19922,-16.10156 -9.30078,0 -16.19922,6.60156 -17,16.10156 M 246.5,157.10156 h -40.39844 c 0.69922,10.09766 8.39844,16.79688 19,16.79688 5.89844,0 11.09766,-2.09766 14.79688,-6.29688 l 3.70312,4.19922 c -4.30078,5.09766 -11,7.89844 -18.60156,7.89844 -15,0 -25.30078,-10.30078 -25.30078,-24.59766 0,-14.30078 10,-24.5 23.60156,-24.5 13.59766,0 23.39844,10 23.39844,24.5 -0.0977,0.59766 -0.19922,1.29688 -0.19922,2"
       id="path32" />
    <path
       style="fill:none;stroke:#009ee3;stroke-width:1;stroke-linecap:butt;stroke-linejoin:miter;stroke-miterlimit:10;stroke-opacity:1"
       d="M -0.0015625,0 -11.798438,11.398438 h 6.097657 l 9.101562,-7.5 9.097656,7.5 H 18.6 L 6.799219,0 Z M -13.700781,-28.800781 h 34.199218 c -0.796875,9.5 -7.699218,16.101562 -17.199218,16.101562 -9.300782,0 -16.199219,-6.601562 -17,-16.101562 z M 26.6,-33.601562 h -40.398438 c 0.699219,-10.097657 8.398438,-16.796876 19,-16.796876 5.898438,0 11.097657,2.097657 14.796875,6.296876 l 3.703125,-4.199219 c -4.300781,-5.097657 -11,-7.898438 -18.601562,-7.898438 -15,0 -25.300781,10.300781 -25.300781,24.597657 0,14.300781 10,24.5 23.601562,24.5 13.597656,0 23.398438,-10 23.398438,-24.5 -0.09766,-0.597657 -0.199219,-1.296876 -0.199219,-2 z m 0,0"
       transform="matrix(1,0,0,-1,219.9,123.5)"
       id="path34" />
  </g>
</svg>
