<?xml version="1.0" encoding="UTF-8"?>
<svg version="1.1" xmlns="http://www.w3.org/2000/svg" width="1282" height="474">
<path d="M0 0 C423.06 0 846.12 0 1282 0 C1282 109.56 1282 219.12 1282 332 C1134.4030962 332 1134.4030962 332 1087.65691972 331.91545701 C1081.04948314 331.90362684 1074.44204434 331.89312283 1067.83460586 331.88242082 C1054.45048102 331.86071013 1041.06635792 331.83807927 1027.68223572 331.81480408 C1014.54711488 331.79196535 1001.41199335 331.7696096 988.27687073 331.74781799 C987.02364095 331.74573847 987.02364095 331.74573847 985.74509341 331.74361694 C981.49725278 331.73657066 977.24941213 331.72953223 973.00157148 331.72249681 C943.3846725 331.67343038 913.76777522 331.6234028 884.15087891 331.57275391 C855.48779382 331.5237385 826.82470799 331.47519344 798.16162109 331.42724609 C796.82205404 331.42500501 796.82205404 331.42500501 795.45542503 331.42271865 C786.48214582 331.40770693 777.50886659 331.39270435 768.53558736 331.37770845 C750.27726486 331.34719543 732.01894246 331.31662164 713.76062012 331.28601074 C712.50306566 331.28390251 712.50306566 331.28390251 711.22010606 331.28175168 C655.81340231 331.18885791 600.40670095 331.09454587 545 331 C545 331.66 545 332.32 545 333 C543.41701974 333.4803318 541.83360022 333.95921612 540.25 334.4375 C538.92742187 334.83775391 538.92742187 334.83775391 537.578125 335.24609375 C535.39434165 335.88468494 533.21164502 336.46775833 531 337 C531 337.66 531 338.32 531 339 C530.34773437 339.24234375 529.69546875 339.4846875 529.0234375 339.734375 C523.04549569 342.00904587 523.04549569 342.00904587 517.5625 345.25 C515 347 515 347 512 347 C512 347.66 512 348.32 512 349 C511.39414062 349.21914063 510.78828125 349.43828125 510.1640625 349.6640625 C504.37377551 351.85546342 499.24769308 354.49356328 494.03125 357.828125 C492 359 492 359 490 359 C490 359.66 490 360.32 490 361 C480.58997722 365.40774487 480.58997722 365.40774487 476 366 C476 366.66 476 367.32 476 368 C475.20734741 368.36967896 475.20734741 368.36967896 474.39868164 368.74682617 C471.95171323 369.89038159 469.50711133 371.03891493 467.0625 372.1875 C466.23169922 372.57486328 465.40089844 372.96222656 464.54492188 373.36132812 C459.57329286 375.70205618 454.73093375 378.18747926 449.95068359 380.8984375 C442.6875 385 442.6875 385 440 385 C440 385.66 440 386.32 440 387 C437.73272667 388.17407021 435.46165376 389.33939739 433.1875 390.5 C432.54490234 390.83386719 431.90230469 391.16773438 431.24023438 391.51171875 C428.30452301 393.00239084 426.33873483 394 423 394 C423 394.66 423 395.32 423 396 C422.35933594 396.24234375 421.71867187 396.4846875 421.05859375 396.734375 C416.88482412 398.35163298 412.85823226 399.96605702 409 402.25 C406 404 406 404 404 404 C404 404.66 404 405.32 404 406 C401.73272667 407.17407021 399.46165376 408.33939739 397.1875 409.5 C396.54490234 409.83386719 395.90230469 410.16773438 395.24023438 410.51171875 C392.30452301 412.00239084 390.33873483 413 387 413 C387 413.66 387 414.32 387 415 C385.35 415 383.7 415 382 415 C382 415.66 382 416.32 382 417 C380.56570999 417.67354499 379.12742943 418.33859701 377.6875 419 C376.88699219 419.37125 376.08648437 419.7425 375.26171875 420.125 C373 421 373 421 370 421 C370 421.66 370 422.32 370 423 C368.99582031 423.49628906 367.99164063 423.99257813 366.95703125 424.50390625 C359.12009849 428.39156405 351.35191236 432.36380417 343.671875 436.5546875 C342.79015625 437.03164063 341.9084375 437.50859375 341 438 C340.28328125 438.39445312 339.5665625 438.78890625 338.828125 439.1953125 C337 440 337 440 334 440 C334 440.66 334 441.32 334 442 C331.73272667 443.17407021 329.46165376 444.33939739 327.1875 445.5 C326.54490234 445.83386719 325.90230469 446.16773438 325.24023438 446.51171875 C322.30452301 448.00239084 320.33873483 449 317 449 C317 449.66 317 450.32 317 451 C315.35 451.33 313.7 451.66 312 452 C312 452.66 312 453.32 312 454 C309.8205518 454.9735857 307.6398764 455.9442043 305.45703125 456.91015625 C303.95145377 457.57797201 302.44823756 458.25118328 300.94921875 458.93359375 C298.10699374 460.20559595 296.15331064 461 293 461 C293 461.66 293 462.32 293 463 C291.37750059 463.83819158 289.75191503 464.6704116 288.125 465.5 C287.22007812 465.9640625 286.31515625 466.428125 285.3828125 466.90625 C283 468 283 468 281 468 C281 468.66 281 469.32 281 470 C273.47053359 473.70315315 267.20052456 474.52539903 258.875 474.25 C257.823125 474.23195313 256.77125 474.21390625 255.6875 474.1953125 C253.12400578 474.14870351 250.56251906 474.0833027 248 474 C247.67 472.68 247.34 471.36 247 470 C247.99 469.67 248.98 469.34 250 469 C250 424.45 250 379.9 250 334 C242.20435573 332.70072596 235.47570271 331.70827458 227.74501038 331.76622009 C226.30772092 331.76471517 226.30772092 331.76471517 224.84139532 331.76317984 C221.6703003 331.76223662 218.49943377 331.77550461 215.32836914 331.78881836 C213.03917507 331.79102231 210.74997999 331.79232563 208.46078491 331.7928009 C203.55163283 331.79572312 198.64254798 331.80493175 193.7334156 331.81910515 C185.97254143 331.84144401 178.21169189 331.84947287 170.45079041 331.85560608 C159.5741932 331.86567622 148.69762437 331.88201833 137.82104492 331.90405273 C136.78797141 331.9061427 136.78797141 331.9061427 135.73402774 331.9082749 C135.04442952 331.90967043 134.3548313 331.91106596 133.64433616 331.91250378 C123.85167953 331.93230213 114.05902193 331.95012363 104.26635742 331.96557617 C103.57636715 331.96666702 102.88637688 331.96775787 102.17547781 331.96888178 C90.67268101 331.98690158 79.16988173 332.00085472 67.667077 332.01274782 C59.94949538 332.02115937 52.23195002 332.03518742 44.5143863 332.05372036 C39.72211156 332.0643501 34.92983718 332.07094208 30.13755417 332.07652092 C27.91269907 332.07999589 25.68784591 332.08521481 23.46299934 332.09228897 C20.43068751 332.10172003 17.39842867 332.10501419 14.36610413 332.10679626 C13.04034216 332.11321189 13.04034216 332.11321189 11.68779713 332.11975712 C10.8736111 332.11899947 10.05942508 332.11824181 9.22056675 332.1174612 C8.52117153 332.11892507 7.82177631 332.12038894 7.10118729 332.12189716 C5 332 5 332 0 331 C0 221.77 0 112.54 0 0 Z " fill="#D62514" transform="translate(0,0)"/>
<path d="M0 0 C0.67273956 -0.0080365 1.34547913 -0.016073 2.03860474 -0.02435303 C15.34526908 -0.14480102 27.88586493 1.32290303 39.875 7.375 C41.35231184 8.00437171 42.8315317 8.62928111 44.3125 9.25 C60.26219254 16.4521968 74.27454354 28.17735161 80.82128906 44.77392578 C84.94759329 56.36274246 87.05558929 66.68511577 87.0625 79 C87.07474609 80.12535156 87.08699219 81.25070313 87.09960938 82.41015625 C87.1223801 95.54127562 84.05761438 107.03752503 79.875 119.375 C79.4934375 120.50421875 79.111875 121.6334375 78.71875 122.796875 C67.8088912 153.02013247 44.07629075 177.56893343 15.2421875 191.32421875 C11.16652197 193.13338381 7.0441282 194.79446483 2.875 196.375 C1.04582031 197.10783203 1.04582031 197.10783203 -0.8203125 197.85546875 C-24.03829313 206.49119401 -54.53569952 206.61340966 -78.125 199.375 C-80.60564648 198.20347094 -82.78774206 196.83994011 -85.125 195.375 C-87.43193164 194.25924614 -89.74447588 193.15502206 -92.0625 192.0625 C-109.47748536 183.46366512 -119.61903046 167.34482126 -125.9375 149.4375 C-128.38661293 141.97141635 -128.31124697 134.48876464 -128.31030273 126.70922852 C-128.3124751 124.71040746 -128.33094797 122.71162575 -128.34960938 120.71289062 C-128.36696487 109.12520288 -126.65445136 99.00605463 -122.9375 88.0625 C-122.62780273 87.15024658 -122.31810547 86.23799316 -121.99902344 85.2980957 C-111.28321265 54.53763885 -89.08580007 28.88416797 -60.15234375 13.828125 C-40.51069214 4.3845552 -21.72705566 0.14473634 0 0 Z " fill="#FEFCFC" transform="translate(1079.125,88.625)"/>
<path d="M0 0 C0.19335938 1.25917236 0.38671875 2.51834473 0.5859375 3.81567383 C2.5133979 16.30269778 2.5133979 16.30269778 5 28.6875 C5.34503113 30.28097314 5.68876231 31.87472826 6.03125 33.46875 C6.19625 34.23445313 6.36125 35.00015625 6.53125 35.7890625 C8.88999855 46.91449317 10.68474198 58.13457053 12.51733398 69.35498047 C13.54867506 75.57264897 14.79059059 81.67559155 16.296875 87.796875 C17.15325224 91.69814911 17.73196406 95.61236757 18.3125 99.5625 C19.72780753 109.11977918 21.74970836 118.52398346 23.84301758 127.95336914 C25.26405525 134.38918487 26.52432844 140.81471633 27.56860352 147.32250977 C28.13075686 150.81155092 28.77811855 154.27800274 29.4375 157.75 C29.69540496 159.11065956 29.95321452 160.47133721 30.2109375 161.83203125 C30.34081055 162.51604004 30.47068359 163.20004883 30.60449219 163.90478516 C31.00431699 166.02286937 31.39766652 168.14206186 31.7890625 170.26171875 C32.04669542 171.65367908 32.30450493 173.04560674 32.5625 174.4375 C32.68657227 175.10724854 32.81064453 175.77699707 32.93847656 176.46704102 C33.61178879 180.06118168 34.3506823 183.62807825 35.1875 187.1875 C36 191 36 191 36 196 C17.19 196 -1.62 196 -21 196 C-27 161.5 -27 161.5 -27 158 C-48.45 158 -69.9 158 -92 158 C-92.66 159.65 -93.32 161.3 -94 163 C-94.64768779 164.23076712 -95.32428939 165.44682766 -96.03125 166.64453125 C-96.43085938 167.32322266 -96.83046875 168.00191406 -97.2421875 168.70117188 C-97.86480469 169.7462793 -97.86480469 169.7462793 -98.5 170.8125 C-99.07621094 171.79379883 -99.07621094 171.79379883 -99.6640625 172.79492188 C-100.53931863 174.27432492 -101.45294264 175.731357 -102.39306641 177.17041016 C-103.73640033 179.5358371 -104.57695305 181.56576259 -105.46240234 184.10693359 C-107.42412825 189.00573884 -109.48509029 193.05161087 -114 196 C-123.43897228 198.56225658 -133.74594181 197.57919262 -143.42749023 197.09863281 C-147.09993286 196.93379926 -150.77412992 196.86164742 -154.44921875 196.78125 C-161.63762787 196.61053741 -168.81731318 196.33822083 -176 196 C-174.5555977 192.28014216 -172.90863144 189.02462006 -170.796875 185.6328125 C-170.15339111 184.59406982 -169.50990723 183.55532715 -168.84692383 182.48510742 C-168.15493896 181.37627197 -167.4629541 180.26743652 -166.75 179.125 C-165.65885365 177.36666257 -164.56916943 175.60742468 -163.47956848 173.84812927 C-162.73797216 172.65088687 -161.99593407 171.45391799 -161.25346375 170.25721741 C-157.7380523 164.58856991 -154.27154229 158.89069665 -150.8125 153.1875 C-145.88001497 145.06545259 -140.8987787 136.97529563 -135.88720703 128.90185547 C-131.36318545 121.60579531 -126.89775983 114.27503073 -122.44140625 106.9375 C-117.31684956 98.50568536 -112.14538699 90.1032222 -106.96826172 81.70361328 C-102.55929872 74.54584578 -98.17639048 67.37282407 -93.8125 60.1875 C-90.50480752 54.74147316 -87.19252248 49.29888272 -83.8359375 43.8828125 C-83.32087646 43.04556641 -82.80581543 42.20832031 -82.27514648 41.34570312 C-81.21264194 39.6504014 -80.12313685 37.9717392 -79.00805664 36.31054688 C-76.04010365 31.79785984 -73.74929495 27.58090359 -72.06417847 22.42634583 C-69.42443921 14.49364051 -66.3505941 6.08093822 -59.29107666 1.08905029 C-43.3544792 -6.4863209 -17.05288989 -1.56767906 0 0 Z " fill="#FEFCFC" transform="translate(493,93)"/>
<path d="M0 0 C0.74885468 -0.00181274 1.49770935 -0.00362549 2.26925659 -0.00549316 C11.73207301 -0.00290377 20.79843394 0.60866191 30.125 2.375 C31.01356689 2.5407251 31.90213379 2.7064502 32.81762695 2.87719727 C37.38629587 3.76310664 40.96331627 5.25169197 45.125 7.375 C47.72054727 8.18786907 50.32619293 8.92441083 52.953125 9.62890625 C55.125 10.375 55.125 10.375 57.125 12.375 C56.84741211 15.49414063 56.84741211 15.49414063 56.125 19.375 C55.88595947 20.66083984 55.64691895 21.94667969 55.40063477 23.27148438 C55.12467086 24.67099108 54.84650367 26.07006471 54.56640625 27.46875 C54.41719223 28.21910522 54.26797821 28.96946045 54.11424255 29.74255371 C53.8000378 31.31928655 53.48484264 32.89582231 53.16870117 34.47216797 C52.68900716 36.86747412 52.2144544 39.26376114 51.74023438 41.66015625 C51.43260361 43.20058316 51.12467095 44.74094982 50.81640625 46.28125 C50.67674942 46.9887439 50.53709259 47.69623779 50.39320374 48.4251709 C49.50599702 52.82079822 48.40695699 57.08291139 47.125 61.375 C46.37476563 61.06046875 45.62453125 60.7459375 44.8515625 60.421875 C42.70161109 59.52290287 40.54907735 58.63009125 38.39453125 57.7421875 C36.48367204 56.94314243 34.58048997 56.12422727 32.69921875 55.2578125 C17.10923859 48.31098196 -3.80035896 46.37499471 -19.875 52.375 C-23.4627528 54.86136108 -23.4627528 54.86136108 -25.875 58.375 C-26.11052522 60.44961481 -26.11052522 60.44961481 -26.125 62.75 C-26.15078125 63.52085937 -26.1765625 64.29171875 -26.203125 65.0859375 C-25.78189623 68.02450963 -24.91576283 69.22845249 -22.875 71.375 C-17.62941578 74.84098375 -11.97435005 77.46474676 -6.0625 79.5625 C2.62537903 82.7894265 10.59570879 87.08609145 18.5 91.875 C19.24878418 92.32552734 19.99756836 92.77605469 20.76904297 93.24023438 C26.81704293 96.97493161 33.21558341 101.04110853 36.875 107.3125 C37.24109375 107.91964844 37.6071875 108.52679688 37.984375 109.15234375 C38.36078125 109.88582031 38.7371875 110.61929688 39.125 111.375 C39.65738281 112.40882813 40.18976563 113.44265625 40.73828125 114.5078125 C42.63349159 119.04075511 42.61805326 123.45670026 42.5625 128.3125 C42.55565186 129.23401855 42.54880371 130.15553711 42.54174805 131.10498047 C42.16326715 147.48313888 36.77753035 162.14842463 27.125 175.375 C26.42375 176.365 25.7225 177.355 25 178.375 C10.41918638 195.08507529 -13.01370578 202.02333138 -34.37896729 203.55444336 C-39.48810443 203.78259782 -44.5928955 203.80352492 -49.70629883 203.76611328 C-52.30798904 203.75002789 -54.90812178 203.76607508 -57.50976562 203.78515625 C-77.45666645 203.809808 -100.35216019 201.6528195 -117.875 191.375 C-117.56399352 183.8952941 -116.09244413 177.17517903 -114.0625 169.98828125 C-111.44514598 160.26000368 -109.77626204 150.26273621 -107.875 140.375 C-104.3322858 141.03813004 -101.33877322 141.92161239 -98.0625 143.4375 C-97.27230469 143.79972656 -96.48210937 144.16195312 -95.66796875 144.53515625 C-95.07628906 144.81230469 -94.48460938 145.08945313 -93.875 145.375 C-93.875 146.035 -93.875 146.695 -93.875 147.375 C-92.9675 147.4575 -92.06 147.54 -91.125 147.625 C-87.69522785 148.09736383 -84.68353794 149.12125279 -81.4375 150.3125 C-70.49872501 154.03547416 -59.33129992 154.54051846 -47.875 154.625 C-47.00302979 154.6343457 -46.13105957 154.64369141 -45.23266602 154.65332031 C-37.52388738 154.61486885 -30.66608984 153.99060227 -24.875 148.375 C-23.28464881 145.19429763 -23.08562552 141.79169549 -23.875 138.375 C-27.58343383 132.77903996 -32.00465038 130.30253526 -37.9375 127.375 C-38.78513916 126.94203613 -39.63277832 126.50907227 -40.50610352 126.06298828 C-45.08065932 123.73455114 -49.69483156 121.49146771 -54.3125 119.25 C-69.70115708 111.60947795 -83.53399508 101.29239964 -89.9609375 84.9140625 C-94.48119891 67.41253757 -88.73109496 50.42670021 -79.875 35.375 C-73.48456449 25.54356075 -64.40342372 17.49008404 -53.875 12.375 C-53.215 11.715 -52.555 11.055 -51.875 10.375 C-50.22339726 9.6718424 -48.55473591 9.0080162 -46.875 8.375 C-46.21242188 8.06820312 -45.54984375 7.76140625 -44.8671875 7.4453125 C-30.34997338 0.96345675 -15.64009927 -0.00245814 0 0 Z " fill="#FEFDFC" transform="translate(152.875,88.625)"/>
<path d="M0 0 C2.38488406 -0.00965052 4.76888327 -0.04074893 7.15356445 -0.07226562 C15.21610771 -0.12921755 23.06213465 0.24827578 31.03442383 1.50585938 C31.75267838 1.61420105 32.47093292 1.72254272 33.21095276 1.83416748 C37.75308883 2.63507818 41.46696086 4.08336585 45.51478577 6.29193115 C47.38331447 7.25701232 49.23233093 7.95240477 51.22583008 8.61523438 C56.3298437 10.43519142 60.79177521 13.35345578 65.35083008 16.24023438 C64.93393708 21.2429504 64.24953397 25.91159108 62.96801758 30.76757812 C61.33660302 37.15503902 60.03549055 43.58087643 58.78833008 50.05273438 C57.53888338 56.53206324 56.30356276 62.93209792 54.35083008 69.24023438 C50.67371875 67.9260555 47.93273228 66.30776501 44.85083008 63.92773438 C26.71743859 51.12769332 -1.04290508 50.61253078 -22.38745117 53.62695312 C-37.34761505 56.60944194 -50.24433856 64.81533128 -58.84448242 77.47070312 C-65.98221281 89.00537934 -69.27510423 100.66476716 -69.64916992 114.24023438 C-69.70073242 115.51769531 -69.75229492 116.79515625 -69.80541992 118.11132812 C-70.04169922 128.04490373 -69.13749197 135.31006298 -62.64916992 143.24023438 C-46.23061454 154.73322314 -20.34248554 153.08249055 -1.58007812 150.01147461 C11.16124776 147.64457904 22.43972964 143.97232447 33.92260742 137.96972656 C37.04964735 136.33802419 39.9090421 134.99936915 43.35083008 134.24023438 C42.97823319 135.91692038 42.60561319 137.59360125 42.23291016 139.27026367 C41.88865429 140.81982941 41.54475366 142.36947411 41.20117188 143.91918945 C40.07064723 149.01509642 38.93112944 154.10887994 37.78442383 159.20117188 C37.51645996 160.39572998 37.24849609 161.59028809 36.97241211 162.82104492 C36.44036494 165.19278082 35.90624447 167.56405275 35.36987305 169.93481445 C33.85340512 176.61100715 33.85340512 176.61100715 32.89770508 183.38085938 C32.35083008 186.24023438 32.35083008 186.24023438 30.84692383 187.80664062 C23.22175622 191.49623786 15.35492813 194.48275075 7.35083008 197.24023438 C6.0127832 197.70623047 6.0127832 197.70623047 4.64770508 198.18164062 C-22.59470149 206.57405942 -62.20669521 208.10331527 -88.64916992 196.24023438 C-88.64916992 195.58023438 -88.64916992 194.92023438 -88.64916992 194.24023438 C-89.36588867 194.13839844 -90.08260742 194.0365625 -90.82104492 193.93164062 C-102.84558558 190.99193939 -113.1125632 179.96226976 -119.47021484 169.88012695 C-127.646918 156.21964683 -130.99550232 142.69585785 -130.89916992 126.86523438 C-130.91077148 124.9703125 -130.91077148 124.9703125 -130.92260742 123.03710938 C-130.90766629 115.85042495 -130.41721319 109.20969255 -128.64916992 102.24023438 C-128.43776367 101.33273438 -128.22635742 100.42523438 -128.00854492 99.49023438 C-127.26037065 96.72774475 -126.46610524 93.98327736 -125.64916992 91.24023438 C-125.45871094 90.59022461 -125.26825195 89.94021484 -125.07202148 89.27050781 C-118.33113167 66.59660571 -106.86759156 47.59773494 -89.64916992 31.24023438 C-89.02913086 30.64855469 -88.4090918 30.056875 -87.77026367 29.44726562 C-78.77492587 21.12778505 -68.97250519 14.88313586 -57.64916992 10.24023438 C-56.81643555 9.881875 -55.98370117 9.52351563 -55.12573242 9.15429688 C-37.32870104 1.68740358 -19.08225716 0.04641473 0 0 Z " fill="#FEFCFC" transform="translate(673.649169921875,88.759765625)"/>
<path d="M0 0 C53.79 0 107.58 0 163 0 C162.32850511 4.70046426 161.5905266 9.22770238 160.625 13.859375 C160.36203125 15.14070313 160.0990625 16.42203125 159.828125 17.7421875 C159.41603378 19.74112286 159.0021698 21.73963488 158.58398438 23.73730469 C157.03260034 31.16703722 155.68190453 38.44909663 155.2109375 46.03222656 C155 48 155 48 154 49 C152.31198015 49.09353163 150.62004793 49.11744791 148.92944336 49.11352539 C147.84839828 49.11344986 146.76735321 49.11337433 145.65354919 49.11329651 C143.889515 49.10555458 143.889515 49.10555458 142.08984375 49.09765625 C140.89267227 49.0962413 139.69550079 49.09482635 138.46205139 49.09336853 C134.62050934 49.08774979 130.77902457 49.07519411 126.9375 49.0625 C124.34049563 49.05748741 121.74349035 49.05292409 119.14648438 49.04882812 C112.76430321 49.03777427 106.3821557 49.02101792 100 49 C99.94090958 49.58393021 99.88181915 50.16786041 99.82093811 50.76948547 C99.3618766 55.12624754 98.81683046 59.38502656 97.87109375 63.66796875 C97.53174805 65.22559937 97.53174805 65.22559937 97.18554688 66.81469727 C96.93869141 67.92772217 96.69183594 69.04074707 96.4375 70.1875 C95.89368061 72.67950202 95.35076183 75.17170069 94.80859375 77.6640625 C94.66465179 78.32368484 94.52070984 78.98330719 94.37240601 79.66291809 C92.70843104 87.30299482 91.11361246 94.95746417 89.51290894 102.61099243 C87.04120669 114.42477912 84.53045848 126.2258473 81.875 138 C79.44228371 148.793374 77.22679048 159.62326985 75.09130859 170.47851562 C73.47849312 178.67482805 71.75095121 186.82889436 70 195 C50.86 195 31.72 195 12 195 C12.59180597 189.67374623 13.15277972 184.73380906 14.19921875 179.54296875 C14.43560059 178.36347656 14.67198242 177.18398438 14.91552734 175.96875 C15.17027832 174.7209375 15.4250293 173.473125 15.6875 172.1875 C15.95797577 170.85028685 16.22831825 169.51304673 16.49853516 168.17578125 C18.70430764 157.29841953 21.02180608 146.44570539 23.3671875 135.59765625 C24.57857256 129.98430503 25.76782752 124.36664867 26.9453125 118.74609375 C27.11310715 117.94519318 27.28090179 117.1442926 27.45378113 116.31912231 C27.79683604 114.68134007 28.13986872 113.04355318 28.48287964 111.40576172 C31.45329507 97.2277033 34.49653043 83.07048193 37.67578125 68.9375 C39.15606958 62.300219 40.57512898 55.64939811 42 49 C24.84 49 7.68 49 -10 49 C-9.32713406 42.94420653 -8.53545654 37.27739144 -7.1875 31.38671875 C-7.01371826 30.60988235 -6.83993652 29.83304596 -6.66088867 29.03266907 C-6.11176632 26.58324004 -5.5559533 24.13538653 -5 21.6875 C-4.62717213 20.0280918 -4.25477274 18.36858727 -3.8828125 16.70898438 C-1.27353368 5.09413472 -1.27353368 5.09413472 0 0 Z " fill="#FEFCFC" transform="translate(223,93)"/>
<path d="M0 0 C1.02814316 0.00222061 2.05628632 0.00444122 3.11558533 0.00672913 C4.85727745 0.00684242 4.85727745 0.00684242 6.63415527 0.00695801 C8.52943214 0.01469994 8.52943214 0.01469994 10.46299744 0.02259827 C12.39193092 0.02472069 12.39193092 0.02472069 14.35983276 0.02688599 C17.78427561 0.03071034 21.20867628 0.0405399 24.63310242 0.05158997 C28.12522308 0.06180587 31.61735053 0.06638399 35.10948181 0.07142639 C41.96561897 0.08216225 48.82172806 0.09923767 55.67784119 0.12025452 C56.01856494 5.6854092 54.95525137 9.08577944 52.67784119 14.12025452 C52.01523568 16.77869673 51.42858555 19.38437748 50.91612244 22.06947327 C50.68894783 23.20543694 50.68894783 23.20543694 50.45718384 24.36434937 C50.13181797 25.99369972 49.80971359 27.62370418 49.49058533 29.25428772 C48.62856494 33.65442008 47.74056717 38.04930854 46.85362244 42.44447327 C46.67284149 43.34261749 46.49206055 44.24076172 46.30580139 45.16612244 C44.54988497 53.84506997 42.62961408 62.48363232 40.67784119 71.12025452 C37.28158744 86.18682156 34.12426046 101.2958663 31.05821228 116.43287659 C28.97911635 126.67393414 26.83097073 136.89288921 24.67784119 147.12025452 C50.41784119 147.12025452 76.15784119 147.12025452 102.67784119 147.12025452 C102.04042853 152.21955576 101.40046369 156.66115141 100.17784119 161.55775452 C99.09874257 166.0618183 98.28956787 170.40211742 97.98643494 175.02259827 C97.67784119 177.12025452 97.67784119 177.12025452 95.67784119 183.12025452 C95.34784119 187.41025452 95.01784119 191.70025452 94.67784119 196.12025452 C49.13784119 196.12025452 3.59784119 196.12025452 -43.32215881 196.12025452 C-42.19654682 184.86413457 -42.19654682 184.86413457 -41.12294006 179.56556702 C-40.76824646 177.80043762 -40.76824646 177.80043762 -40.40638733 175.99964905 C-40.02438171 174.14122375 -40.02438171 174.14122375 -39.63465881 172.24525452 C-39.36482173 170.91701234 -39.09521358 169.58872363 -38.82582092 168.26039124 C-35.58755838 152.35043281 -32.16918299 136.478565 -28.66981506 120.62416077 C-28.09528973 118.01875901 -27.52097398 115.41331262 -26.94715881 112.80775452 C-26.80304565 112.15378693 -26.6589325 111.49981934 -26.51045227 110.82603455 C-23.79982634 98.50444327 -21.26114458 86.15014063 -18.74708557 73.78715515 C-16.43828613 62.44200653 -14.03710474 51.12502925 -11.4813385 39.83241272 C-10.14827765 33.91844503 -8.8696068 27.9968261 -7.65419006 22.05775452 C-7.44681213 21.0452916 -7.44681213 21.0452916 -7.23524475 20.01237488 C-6.56314355 16.72385851 -5.89723472 13.43427181 -5.23768616 10.14320374 C-5.00130432 8.97805237 -4.76492249 7.812901 -4.52137756 6.61244202 C-4.31343567 5.57458557 -4.10549377 4.53672913 -3.89125061 3.46742249 C-3.08933245 0.15998311 -3.08933245 0.15998311 0 0 Z " fill="#FEFBFB" transform="translate(843.3221588134766,92.87974548339844)"/>
<path d="M0 0 C1.02814316 0.00222061 2.05628632 0.00444122 3.11558533 0.00672913 C4.85727745 0.00684242 4.85727745 0.00684242 6.63415527 0.00695801 C8.52943214 0.01469994 8.52943214 0.01469994 10.46299744 0.02259827 C12.39193092 0.02472069 12.39193092 0.02472069 14.35983276 0.02688599 C17.78427561 0.03071034 21.20867628 0.0405399 24.63310242 0.05158997 C28.12522308 0.06180587 31.61735053 0.06638399 35.10948181 0.07142639 C41.96561897 0.08216225 48.82172806 0.09923767 55.67784119 0.12025452 C55.79458043 4.78534742 55.5190352 7.74105963 53.52012634 11.96253967 C51.55165645 17.00524601 50.86295933 22.5068313 49.86534119 27.80775452 C49.34055485 30.52465477 48.80979645 33.24038147 48.27940369 35.95619202 C48.14593033 36.64338821 48.01245697 37.33058441 47.87493896 38.03860474 C46.57927562 44.68787193 45.17368218 51.31185661 43.74034119 57.93275452 C43.49421082 59.0726886 43.24808044 60.21262268 42.99449158 61.38710022 C42.48540007 63.74466119 41.97603746 66.10216364 41.46641541 68.45960999 C40.06428275 74.96845739 38.68346522 81.4818188 37.30284119 87.99525452 C37.15872803 88.67475159 37.01461487 89.35424866 36.86613464 90.05433655 C34.60890387 100.69856593 32.36675594 111.34593972 30.12812805 121.99409485 C21.04934248 165.17006074 21.04934248 165.17006074 16.86534119 183.74525452 C16.65820496 184.67080139 16.45106873 185.59634827 16.23765564 186.54994202 C16.04647156 187.39041077 15.85528748 188.23087952 15.65830994 189.09681702 C15.49226257 189.82981018 15.32621521 190.56280334 15.15513611 191.31800842 C14.67784119 193.12025452 14.67784119 193.12025452 13.67784119 195.12025452 C-5.13215881 195.12025452 -23.94215881 195.12025452 -43.32215881 195.12025452 C-42.1970047 184.99386749 -42.1970047 184.99386749 -41.47767639 181.4879303 C-41.31668961 180.69375702 -41.15570282 179.89958374 -40.98983765 179.0813446 C-40.81719894 178.251138 -40.64456024 177.4209314 -40.46669006 176.56556702 C-40.28474594 175.67549957 -40.10280182 174.78543213 -39.91534424 173.86839294 C-39.32608828 170.99310878 -38.73063295 168.11915304 -38.13465881 165.24525452 C-37.72114168 163.23681273 -37.30773102 161.22834902 -36.89442444 159.21986389 C-34.5749193 147.98220837 -32.17184621 136.7694786 -29.63197327 125.57948303 C-27.20882399 114.812042 -25.02050781 103.9978121 -22.82215881 93.18275452 C-19.66694833 77.66222628 -16.43814511 62.16271699 -13.08876038 46.68275452 C-11.41217733 38.89144884 -9.76860887 31.09305773 -8.12043762 23.29570007 C-7.19183496 18.90299282 -6.25809257 14.51140713 -5.32215881 10.12025452 C-5.01955139 8.67658508 -5.01955139 8.67658508 -4.71083069 7.20375061 C-3.20761809 0.16610861 -3.20761809 0.16610861 0 0 Z " fill="#FEFCFC" transform="translate(763.3221588134766,92.87974548339844)"/>
<path d="M0 0 C0.99261337 0.00222061 1.98522675 0.00444122 3.00791931 0.00672913 C4.12900589 0.00680466 5.25009247 0.00688019 6.40515137 0.00695801 C8.2348069 0.01469994 8.2348069 0.01469994 10.10142517 0.02259827 C11.96377052 0.02472069 11.96377052 0.02472069 13.86373901 0.02688599 C17.16982383 0.03154861 20.47584039 0.04053955 23.78190613 0.05158997 C27.15338042 0.06180625 30.52486175 0.06638407 33.89634705 0.07142639 C40.51550667 0.08248056 47.13463385 0.09923715 53.75376892 0.12025452 C53.4454066 2.24585888 53.13195278 4.37072517 52.81626892 6.49525452 C52.64224548 7.67861389 52.46822205 8.86197327 52.28892517 10.08119202 C51.75376892 13.12025452 51.75376892 13.12025452 50.75376892 15.12025452 C50.41232823 17.01108992 50.10467224 18.90810618 49.81626892 20.80775452 C49.08424096 25.37886243 48.02561837 29.66878143 46.75376892 34.12025452 C46.40265589 36.11720989 46.07101483 38.11763969 45.75376892 40.12025452 C45.04624138 44.5865221 43.99636258 48.7711767 42.75376892 53.12025452 C42.19791775 56.25655343 41.69669934 59.39698553 41.21861267 62.54603577 C40.75376892 65.12025452 40.75376892 65.12025452 39.75376892 67.12025452 C39.43544878 68.9491484 39.14858982 70.78357892 38.87876892 72.62025452 C38.26014671 76.48778893 37.52595863 80.14618357 36.31626892 83.87025452 C33.22775329 93.57256119 31.85695967 103.92875909 30.37876892 113.98353577 C29.42815141 118.75444739 28.03375522 123.4269714 26.75376892 128.12025452 C8.60376892 128.12025452 -9.54623108 128.12025452 -28.24623108 128.12025452 C-27.53838714 121.74965908 -26.75838421 115.45127539 -25.80873108 109.12025452 C-25.68691467 108.28236389 -25.56509827 107.44447327 -25.43959045 106.58119202 C-23.26493499 92.02339484 -23.26493499 92.02339484 -20.24623108 86.12025452 C-19.90450908 84.10096598 -19.90450908 84.10096598 -19.80873108 81.99525452 C-19.4947492 78.51291 -18.81907061 75.4476119 -17.74623108 72.12025452 C-16.71619955 68.91131013 -16.0299651 65.9777738 -15.74623108 62.62025452 C-15.38794881 58.38058101 -14.23730195 54.64565823 -12.93763733 50.60853577 C-12.05638551 47.43702497 -11.77195707 44.33945845 -11.49232483 41.06947327 C-11.17471057 38.55376667 -10.18561241 36.46870785 -9.24623108 34.12025452 C-9.07043991 32.72787687 -8.92830881 31.33108181 -8.80873108 29.93275452 C-8.49926771 26.57286656 -7.86261119 23.63655006 -6.80873108 20.43275452 C-5.05743477 15.01655032 -4.36767094 9.56602318 -3.67591858 3.92884827 C-3.10023554 0.16597461 -3.10023554 0.16597461 0 0 Z " fill="#1E0407" transform="translate(1199.2462310791016,92.87974548339844)"/>
<path d="M0 0 C6.12801634 4.61403583 12.43391699 9.67349673 14.671875 17.28515625 C16.79399459 34.84316952 14.54315098 53.14142349 3.76318359 67.66650391 C-5.2201891 78.8398032 -16.93619559 87.93858361 -31.3125 90.6171875 C-45.11080752 92.04963892 -58.25285131 92.13226332 -69.95703125 83.8046875 C-75.88923932 78.56438133 -79.63704837 71.56358303 -80.265625 63.66015625 C-80.18021707 43.99498075 -77.21638922 27.58652355 -63.28173828 12.9621582 C-48.66631017 -1.46010342 -19.35345375 -10.60809211 0 0 Z " fill="#D62615" transform="translate(1091,147)"/>
<path d="M0 0 C6.48930251 -0.45958053 12.97438913 -0.77272669 19.47631836 -0.98876953 C21.68233846 -1.0788507 23.88729625 -1.20138796 26.08959961 -1.35791016 C43.92623543 -2.59303361 43.92623543 -2.59303361 49.12493896 1.79260254 C53.04438208 6.52649058 58 13.61455649 58 20 C59.06896303 19.11188872 60.12939761 18.21352327 61.1875 17.3125 C61.91300049 16.70623779 62.63850098 16.09997559 63.38598633 15.4753418 C65.39786984 13.57018751 66.82420675 11.96207624 68.42382812 9.76367188 C72.07356073 5.03543533 75.73005821 0.83604932 81.69717407 -0.68960571 C89.22561572 -1.6242466 96.75789241 -1.1866195 104.3125 -0.8125 C106.61376801 -0.74718477 108.91521512 -0.68788785 111.21679688 -0.63476562 C116.81515221 -0.49256957 122.40672794 -0.2760071 128 0 C128 2 128 2 126.70703125 3.3046875 C126.08183594 3.82289062 125.45664062 4.34109375 124.8125 4.875 C121.11089288 8.02461308 117.50227528 11.25956267 113.9375 14.5625 C113.38811768 15.07087402 112.83873535 15.57924805 112.27270508 16.10302734 C107.37520871 20.64128562 102.49618754 25.19935967 97.6184082 29.75878906 C92.74588725 34.31112484 87.85256337 38.84043641 82.94726562 43.35742188 C80.44158711 45.64504476 80.44158711 45.64504476 78 48 C71.38224306 48.80434058 64.62380999 48.78610639 57.96606445 48.9543457 C55.71194029 49.0259745 53.45856269 49.12812736 51.20727539 49.26196289 C33.02480087 50.32127919 33.02480087 50.32127919 28.03170776 46.48950195 C24.78092457 42.76462728 22.77032791 38.60367879 20.90966797 34.05755615 C19.44440725 30.7433181 17.45610566 27.8805648 15.4375 24.875 C14.70590085 23.74375693 13.976429 22.61113251 13.25 21.4765625 C11.65529691 19.00675195 10.04861403 16.54507013 8.4375 14.0859375 C7.81016968 13.12324951 7.81016968 13.12324951 7.17016602 12.14111328 C6.36458191 10.9052142 5.55532294 9.67170063 4.74194336 8.44091797 C2 4.22509558 2 4.22509558 2 2 C1.34 2 0.68 2 0 2 C0 1.34 0 0.68 0 0 Z " fill="#FEFAFA" transform="translate(618,31)"/>
<path d="M0 0 C4.48101394 2.69678043 8.08037633 5.34290319 10.125 10.25 C12.36886608 19.64997952 11.28447968 28.22658589 6.5859375 36.52734375 C1.0981165 45.34600797 -6.00858119 51.34713598 -16.125 54.25 C-24.09248014 55.04510861 -33.38077441 55.57974351 -40.234375 50.76953125 C-46.11324046 44.65271171 -48.25881057 40.0430953 -48.6875 31.5625 C-48.4537318 21.99833137 -44.77304611 14.70939658 -38.25 7.8125 C-27.67308286 -1.89646402 -13.59203497 -7.22475953 0 0 Z " fill="#1E0407" transform="translate(1207.125,237.75)"/>
<path d="M0 0 C1.26422693 -0.00461538 2.52845386 -0.00923075 3.8309907 -0.01398599 C7.34415158 -0.02624855 10.85684864 -0.01357383 14.36997493 0.00312654 C18.19030202 0.01687314 22.01058245 0.00737832 25.83091885 0.00081658 C32.52769422 -0.00747799 39.22432745 -0.00090407 45.92108631 0.01536942 C55.87890661 0.03950026 65.83663721 0.0407135 75.79448142 0.03720146 C92.54475425 0.03194436 109.294964 0.04531716 126.04521847 0.06927109 C142.63244724 0.09293113 159.21964974 0.10833324 175.80689526 0.11268234 C176.83785608 0.1129573 177.86881691 0.11323226 178.93101897 0.11351555 C184.16664965 0.11486886 189.40228036 0.11607441 194.63791109 0.11722305 C231.73146241 0.12562692 268.82497941 0.15258255 305.91851139 0.1904335 C341.95659547 0.22716504 377.99467016 0.25550253 414.0327692 0.27246475 C415.14342612 0.27299086 416.25408303 0.27351696 417.39839622 0.27405901 C428.55196835 0.27933304 439.70554056 0.28443631 450.85911283 0.28941445 C473.58065948 0.29955957 496.30220551 0.31084458 519.02375126 0.32281876 C520.06847399 0.32336792 521.11319672 0.32391708 522.18957771 0.32448288 C591.96617991 0.36129171 661.74276306 0.42467324 731.51934147 0.49219131 C731.51934147 1.15219131 731.51934147 1.81219131 731.51934147 2.49219131 C665.37407443 2.5172932 599.2289901 2.50607459 533.08379459 2.40039444 C532.33858603 2.3992057 531.59337746 2.39801695 530.82558681 2.39679219 C512.1515738 2.36695395 493.47756404 2.3352826 474.80355541 2.3028277 C462.46777515 2.28138846 450.13199411 2.26047479 437.7962122 2.24000931 C436.96072568 2.23862296 436.12523917 2.23723661 435.26443488 2.23580826 C431.01659424 2.22876198 426.7687536 2.22172355 422.52091295 2.21468812 C392.90401397 2.1656217 363.28711669 2.11559411 333.67022038 2.06494522 C305.00713529 2.01592982 276.34404946 1.96738476 247.68096256 1.91943741 C246.34139551 1.91719632 246.34139551 1.91719632 244.9747665 1.91490997 C236.00148729 1.89989825 227.02820806 1.88489567 218.05492883 1.86989977 C199.79660632 1.83938675 181.53828392 1.80881295 163.27996159 1.77820206 C162.02240713 1.77609382 162.02240713 1.77609382 160.73944753 1.773943 C105.33274378 1.68104923 49.92604242 1.58673719 -5.48065853 1.49219131 C-5.48065853 2.15219131 -5.48065853 2.81219131 -5.48065853 3.49219131 C-7.06363879 3.97252311 -8.64705831 4.45140743 -10.23065853 4.92969131 C-11.55323666 5.32994522 -11.55323666 5.32994522 -12.90253353 5.73828506 C-15.08631688 6.37687626 -17.26901352 6.95994964 -19.48065853 7.49219131 C-19.48065853 8.15219131 -19.48065853 8.81219131 -19.48065853 9.49219131 C-20.13292416 9.73453506 -20.78518978 9.97687881 -21.45722103 10.22656631 C-27.43516284 12.50123719 -27.43516284 12.50123719 -32.91815853 15.74219131 C-35.48065853 17.49219131 -35.48065853 17.49219131 -38.48065853 17.49219131 C-38.48065853 18.15219131 -38.48065853 18.81219131 -38.48065853 19.49219131 C-39.08651791 19.71133194 -39.69237728 19.93047256 -40.31659603 20.15625381 C-46.10688302 22.34765474 -51.23296545 24.9857546 -56.44940853 28.32031631 C-58.48065853 29.49219131 -58.48065853 29.49219131 -60.48065853 29.49219131 C-60.48065853 30.15219131 -60.48065853 30.81219131 -60.48065853 31.49219131 C-69.89068131 35.89993619 -69.89068131 35.89993619 -74.48065853 36.49219131 C-74.48065853 37.15219131 -74.48065853 37.81219131 -74.48065853 38.49219131 C-75.00909359 38.73864395 -75.53752865 38.98509659 -76.08197689 39.23901749 C-78.5289453 40.3825729 -80.9735472 41.53110624 -83.41815853 42.67969131 C-84.24895931 43.0670546 -85.07976009 43.45441788 -85.93573666 43.85351944 C-90.90736567 46.1942475 -95.74972478 48.67967057 -100.52997494 51.39062881 C-107.79315853 55.49219131 -107.79315853 55.49219131 -110.48065853 55.49219131 C-110.48065853 56.15219131 -110.48065853 56.81219131 -110.48065853 57.49219131 C-112.74793187 58.66626152 -115.01900477 59.83158871 -117.29315853 60.99219131 C-117.93575619 61.3260585 -118.57835384 61.65992569 -119.24042416 62.00391006 C-122.17613552 63.49458216 -124.1419237 64.49219131 -127.48065853 64.49219131 C-127.48065853 65.15219131 -127.48065853 65.81219131 -127.48065853 66.49219131 C-128.44165462 66.85570694 -128.44165462 66.85570694 -129.42206478 67.22656631 C-133.59583442 68.8438243 -137.62242628 70.45824833 -141.48065853 72.74219131 C-144.48065853 74.49219131 -144.48065853 74.49219131 -146.48065853 74.49219131 C-146.48065853 75.15219131 -146.48065853 75.81219131 -146.48065853 76.49219131 C-148.74793187 77.66626152 -151.01900477 78.83158871 -153.29315853 79.99219131 C-153.93575619 80.3260585 -154.57835384 80.65992569 -155.24042416 81.00391006 C-158.17613552 82.49458216 -160.1419237 83.49219131 -163.48065853 83.49219131 C-163.48065853 84.15219131 -163.48065853 84.81219131 -163.48065853 85.49219131 C-165.13065853 85.49219131 -166.78065853 85.49219131 -168.48065853 85.49219131 C-168.48065853 86.15219131 -168.48065853 86.81219131 -168.48065853 87.49219131 C-169.91494854 88.16573631 -171.3532291 88.83078832 -172.79315853 89.49219131 C-173.59366634 89.86344131 -174.39417416 90.23469131 -175.21893978 90.61719131 C-177.48065853 91.49219131 -177.48065853 91.49219131 -180.48065853 91.49219131 C-180.48065853 92.15219131 -180.48065853 92.81219131 -180.48065853 93.49219131 C-181.98692806 94.23662491 -181.98692806 94.23662491 -183.52362728 94.99609756 C-191.36056004 98.88375536 -199.12874617 102.85599548 -206.80878353 107.04687881 C-207.69050228 107.52383194 -208.57222103 108.00078506 -209.48065853 108.49219131 C-210.55573666 109.083871 -210.55573666 109.083871 -211.65253353 109.68750381 C-213.48065853 110.49219131 -213.48065853 110.49219131 -216.48065853 110.49219131 C-216.48065853 111.15219131 -216.48065853 111.81219131 -216.48065853 112.49219131 C-218.74793187 113.66626152 -221.01900477 114.83158871 -223.29315853 115.99219131 C-223.93575619 116.3260585 -224.57835384 116.65992569 -225.24042416 117.00391006 C-228.17613552 118.49458216 -230.1419237 119.49219131 -233.48065853 119.49219131 C-233.48065853 120.15219131 -233.48065853 120.81219131 -233.48065853 121.49219131 C-235.95565853 121.98719131 -235.95565853 121.98719131 -238.48065853 122.49219131 C-238.48065853 123.15219131 -238.48065853 123.81219131 -238.48065853 124.49219131 C-240.66010673 125.46577702 -242.84078213 126.43639562 -245.02362728 127.40234756 C-246.52920476 128.07016333 -248.03242097 128.7433746 -249.53143978 129.42578506 C-252.37366479 130.69778726 -254.32734789 131.49219131 -257.48065853 131.49219131 C-257.48065853 132.15219131 -257.48065853 132.81219131 -257.48065853 133.49219131 C-259.10315794 134.33038289 -260.7287435 135.16260291 -262.35565853 135.99219131 C-263.26058041 136.45625381 -264.16550228 136.92031631 -265.09784603 137.39844131 C-267.48065853 138.49219131 -267.48065853 138.49219131 -269.48065853 138.49219131 C-269.48065853 139.15219131 -269.48065853 139.81219131 -269.48065853 140.49219131 C-275.3262613 143.12682918 -280.02553819 145.05350613 -286.48065853 144.49219131 C-284.50065853 143.50219131 -284.50065853 143.50219131 -282.48065853 142.49219131 C-282.48065853 141.83219131 -282.48065853 141.17219131 -282.48065853 140.49219131 C-281.70722103 140.17766006 -280.93378353 139.86312881 -280.13690853 139.53906631 C-275.3014124 137.55220404 -270.5060467 135.57352582 -265.85565853 133.17969131 C-262.48065853 131.49219131 -262.48065853 131.49219131 -260.48065853 131.49219131 C-260.15065853 130.50219131 -259.82065853 129.51219131 -259.48065853 128.49219131 C-257.63300228 127.76172256 -257.63300228 127.76172256 -255.41815853 127.30469131 C-254.68468197 127.14613663 -253.95120541 126.98758194 -253.19550228 126.82422256 C-252.62960384 126.71465225 -252.06370541 126.60508194 -251.48065853 126.49219131 C-251.48065853 125.83219131 -251.48065853 125.17219131 -251.48065853 124.49219131 C-250.89800228 124.28465225 -250.31534603 124.07711319 -249.71503353 123.86328506 C-243.48039368 121.52039367 -237.92173785 118.55095543 -232.24237728 115.07812881 C-229.682213 113.60793547 -227.21737717 112.58125263 -224.48065853 111.49219131 C-221.70145444 110.10941461 -218.96686933 108.64535746 -216.23065853 107.17969131 C-215.47357601 106.77597305 -214.71649349 106.37225479 -213.93646908 105.95630264 C-211.78248373 104.80536581 -209.63095504 103.65000265 -207.48065853 102.49219131 C-206.52288509 101.97656631 -205.56511166 101.46094131 -204.57831478 100.92969131 C-201.31904598 99.14684342 -198.19894226 97.32960686 -195.16815853 95.17969131 C-192.48065853 93.49219131 -192.48065853 93.49219131 -188.48065853 93.49219131 C-188.48065853 92.83219131 -188.48065853 92.17219131 -188.48065853 91.49219131 C-187.50483822 91.1660585 -186.52901791 90.83992569 -185.52362728 90.50391006 C-184.23831342 90.06296297 -182.95316575 89.62153123 -181.66815853 89.17969131 C-181.02556087 88.96635147 -180.38296322 88.75301163 -179.72089291 88.53320694 C-176.25780244 87.33099419 -173.88692083 86.26166301 -171.48065853 83.49219131 C-169.48885444 82.47596474 -167.48913218 81.4750614 -165.48065853 80.49219131 C-164.82065853 79.83219131 -164.16065853 79.17219131 -163.48065853 78.49219131 C-159.87907997 76.82479383 -156.38451829 75.27296327 -152.48065853 74.49219131 C-152.48065853 73.83219131 -152.48065853 73.17219131 -152.48065853 72.49219131 C-151.82839291 72.238246 -151.17612728 71.98430069 -150.50409603 71.72266006 C-145.71055424 69.83493785 -141.05265814 67.87758242 -136.48065853 65.49219131 C-135.89026791 65.2073085 -135.29987728 64.92242569 -134.69159603 64.62891006 C-130.87241119 62.78018115 -127.22678287 60.76823127 -123.60565853 58.55469131 C-110.35279594 50.49219131 -110.35279594 50.49219131 -106.48065853 50.49219131 C-106.48065853 49.83219131 -106.48065853 49.17219131 -106.48065853 48.49219131 C-104.52416457 47.65454864 -102.56540297 46.82220072 -100.60565853 45.99219131 C-99.51511166 45.52812881 -98.42456478 45.06406631 -97.30097103 44.58594131 C-94.48065853 43.49219131 -94.48065853 43.49219131 -92.48065853 43.49219131 C-92.48065853 42.83219131 -92.48065853 42.17219131 -92.48065853 41.49219131 C-90.00565853 40.99719131 -90.00565853 40.99719131 -87.48065853 40.49219131 C-87.48065853 39.83219131 -87.48065853 39.17219131 -87.48065853 38.49219131 C-82.53884105 35.9779333 -77.59894297 33.63256481 -72.48065853 31.49219131 C-71.85804134 31.21117569 -71.23542416 30.93016006 -70.59393978 30.64062881 C-67.70499525 29.34454049 -65.6856673 28.49219131 -62.48065853 28.49219131 C-61.49065853 27.00719131 -61.49065853 27.00719131 -60.48065853 25.49219131 C-56.76257663 23.15117678 -53.75110755 21.47767955 -49.48065853 20.49219131 C-49.15065853 19.83219131 -48.82065853 19.17219131 -48.48065853 18.49219131 C-46.28855237 17.27272207 -44.11060454 16.14512208 -41.85565853 15.05469131 C-41.25108822 14.75498428 -40.64651791 14.45527725 -40.02362728 14.14648819 C-35.89778377 12.11875487 -31.71080233 10.29075602 -27.48065853 8.49219131 C-26.13967054 7.86240588 -24.80462004 7.21952543 -23.48065853 6.55469131 C-22.88253353 6.25691788 -22.28440853 5.95914444 -21.66815853 5.65234756 C-19.29939627 4.45795926 -19.29939627 4.45795926 -16.62398094 2.45044351 C-11.38118935 -0.52135085 -5.87619424 -0.05254005 0 0 Z " fill="#F7DBD6" transform="translate(550.480658531189,329.50780868530273)"/>
<path d="M0 0 C0.33 0 0.66 0 1 0 C5.00592339 28.37966399 5.00592339 28.37966399 6.25 39.375 C6.32976074 40.06126465 6.40952148 40.7475293 6.49169922 41.45458984 C6.95404424 45.70538779 7 49.67862758 7 54 C-4.88 54 -16.76 54 -29 54 C-27.46639406 49.39918217 -26.00296758 45.90262797 -23.69140625 41.73828125 C-23.36849609 41.15372162 -23.04558594 40.56916199 -22.71289062 39.96688843 C-21.66801306 38.0791209 -20.61564591 36.19566541 -19.5625 34.3125 C-18.84021502 33.01353803 -18.11812963 31.71446506 -17.39624023 30.4152832 C-13.16464958 22.81329205 -8.89733799 15.23113841 -4.5625 7.6875 C-4.10883057 6.89448486 -3.65516113 6.10146973 -3.18774414 5.28442383 C-2.1552194 3.50516425 -1.08264116 1.749217 0 0 Z " fill="#D72A19" transform="translate(454,153)"/>
<path d="M0 0 C83.82 0 167.64 0 254 0 C254 47.52 254 95.04 254 144 C252.02 144 250.04 144 248 144 C247.67 142.68 247.34 141.36 247 140 C247.99 139.67 248.98 139.34 250 139 C250 94.45 250 49.9 250 4 C242.20435573 2.70072596 235.47570271 1.70827458 227.74501038 1.76622009 C226.78681741 1.76521681 225.82862444 1.76421353 224.84139532 1.76317984 C221.6703003 1.76223662 218.49943377 1.77550461 215.32836914 1.78881836 C213.03917507 1.79102231 210.74997999 1.79232563 208.46078491 1.7928009 C203.55163283 1.79572312 198.64254798 1.80493175 193.7334156 1.81910515 C185.97254143 1.84144401 178.21169189 1.84947287 170.45079041 1.85560608 C159.5741932 1.86567622 148.69762437 1.88201833 137.82104492 1.90405273 C136.78797141 1.9061427 136.78797141 1.9061427 135.73402774 1.9082749 C135.04442952 1.90967043 134.3548313 1.91106596 133.64433616 1.91250378 C123.85167953 1.93230213 114.05902193 1.95012363 104.26635742 1.96557617 C103.57636715 1.96666702 102.88637688 1.96775787 102.17547781 1.96888178 C90.67268101 1.98690158 79.16988173 2.00085472 67.667077 2.01274782 C59.94949538 2.02115937 52.23195002 2.03518742 44.5143863 2.05372036 C39.72211156 2.0643501 34.92983718 2.07094208 30.13755417 2.07652092 C27.91269907 2.07999589 25.68784591 2.08521481 23.46299934 2.09228897 C20.43068751 2.10172003 17.39842867 2.10501419 14.36610413 2.10679626 C13.48226282 2.11107335 12.59842151 2.11535043 11.68779713 2.11975712 C7.65647445 2.11600572 3.93346717 2.01350667 0 1 C0 0.67 0 0.34 0 0 Z " fill="#F8E9E8" transform="translate(0,330)"/>
<path d="M0 0 C0 0.66 0 1.32 0 2 C-1.58298026 2.4803318 -3.16639978 2.95921612 -4.75 3.4375 C-5.63171875 3.70433594 -6.5134375 3.97117187 -7.421875 4.24609375 C-9.60565835 4.88468494 -11.78835498 5.46775833 -14 6 C-14 6.66 -14 7.32 -14 8 C-14.65226563 8.24234375 -15.30453125 8.4846875 -15.9765625 8.734375 C-21.95450431 11.00904587 -21.95450431 11.00904587 -27.4375 14.25 C-30 16 -30 16 -33 16 C-33 16.66 -33 17.32 -33 18 C-37.95 19.485 -37.95 19.485 -43 21 C-42.01 20.01 -41.02 19.02 -40 18 C-39.4225 17.360625 -38.845 16.72125 -38.25 16.0625 C-33.52679236 11.732893 -27.83873897 9.45841641 -22 7 C-20.64058741 6.34409665 -19.28649831 5.67706379 -17.9375 5 C-17.26589844 4.66484375 -16.59429688 4.3296875 -15.90234375 3.984375 C-14.24052681 3.12446151 -12.61623322 2.19280271 -11 1.25 C-7.07838471 -0.38400637 -4.22269997 -0.21841552 0 0 Z " fill="#FBF2F1" transform="translate(545,331)"/>
<path d="M0 0 C0.66 0.66 1.32 1.32 2 2 C1.01 2.33 0.02 2.66 -1 3 C-1 3.66 -1 4.32 -1 5 C-3.26727333 6.17407021 -5.53834624 7.33939739 -7.8125 8.5 C-8.45509766 8.83386719 -9.09769531 9.16773438 -9.75976562 9.51171875 C-12.69547699 11.00239084 -14.66126517 12 -18 12 C-18 12.66 -18 13.32 -18 14 C-22.625 16.125 -22.625 16.125 -26 15 C-18.54347364 7.58733556 -9.98625903 3.15589492 0 0 Z " fill="#FCF4F3" transform="translate(441,382)"/>
<path d="M0 0 C-3.17320782 3.53586014 -5.16743695 5.58578031 -10 6 C-10 6.66 -10 7.32 -10 8 C-14.95 9.485 -14.95 9.485 -20 11 C-19.01 10.01 -18.02 9.02 -17 8 C-16.4225 7.360625 -15.845 6.72125 -15.25 6.0625 C-11.45922448 2.58762244 -5.19393628 -2.59696814 0 0 Z " fill="#F7E8E7" transform="translate(522,341)"/>
<path d="M0 0 C0.66 0.33 1.32 0.66 2 1 C-0.21928194 3.90802461 -1.92969143 5.95312762 -5 8 C-7.33333333 8 -9.66666667 8 -12 8 C-12.66 8.66 -13.32 9.32 -14 10 C-16.625 10.125 -16.625 10.125 -19 10 C-15.76323321 6.76323321 -11.41846286 5.84818245 -7.1640625 4.31640625 C-4.34354516 3.14293175 -2.31689521 1.95737698 0 0 Z " fill="#F3CCC9" transform="translate(417,393)"/>
<path d="M0 0 C0.66 0.33 1.32 0.66 2 1 C-2.62 5.62 -7.24 10.24 -12 15 C-12.66 14.67 -13.32 14.34 -14 14 C-12.60919892 12.41224451 -11.21211596 10.82999061 -9.8125 9.25 C-8.64654297 7.92742187 -8.64654297 7.92742187 -7.45703125 6.578125 C-5.11544754 4.12113732 -2.69841735 2.05137234 0 0 Z " fill="#F6D3D0" transform="translate(89,107)"/>
<path d="M0 0 C-0.66 1.65 -1.32 3.3 -2 5 C-3.03125 5.12375 -4.0625 5.2475 -5.125 5.375 C-8.62116846 5.93889814 -11.68397627 6.78682059 -15 8 C-12.97082548 4.95623822 -12.27417715 4.25189126 -9 3 C-7.68 3 -6.36 3 -5 3 C-5 2.34 -5 1.68 -5 1 C-3 0 -3 0 0 0 Z " fill="#ECB5B0" transform="translate(367,420)"/>
<path d="M0 0 C-0.33 0.99 -0.66 1.98 -1 3 C-1.99 3.33 -2.98 3.66 -4 4 C-4.99 5.485 -4.99 5.485 -6 7 C-8.5 7.8125 -8.5 7.8125 -11 8 C-11.66 7.34 -12.32 6.68 -13 6 C-11.865625 5.54625 -10.73125 5.0925 -9.5625 4.625 C-5.95278308 3.42904194 -5.95278308 3.42904194 -5 1 C-2 0 -2 0 0 0 Z " fill="#ECCCC9" transform="translate(507,347)"/>
<path d="M0 0 C-1.44781793 3.44428265 -3.27694609 5.36130962 -6.125 7.75 C-7.21167969 8.67039063 -7.21167969 8.67039063 -8.3203125 9.609375 C-8.87460938 10.06828125 -9.42890625 10.5271875 -10 11 C-10 8 -10 8 -8.3203125 5.95703125 C-7.23363281 4.89548828 -7.23363281 4.89548828 -6.125 3.8125 C-5.40570312 3.09707031 -4.68640625 2.38164062 -3.9453125 1.64453125 C-2 0 -2 0 0 0 Z " fill="#3D0909" transform="translate(1175,242)"/>
<path d="M0 0 C0.66 0.33 1.32 0.66 2 1 C0.88200014 2.33920838 -0.24461897 3.67122556 -1.375 5 C-2.00148438 5.7425 -2.62796875 6.485 -3.2734375 7.25 C-4.12808594 8.11625 -4.12808594 8.11625 -5 9 C-5.66 9 -6.32 9 -7 9 C-7 9.66 -7 10.32 -7 11 C-7.66 10.67 -8.32 10.34 -9 10 C-7.8758824 8.70756532 -6.75067408 7.41607925 -5.625 6.125 C-4.99851562 5.40570313 -4.37203125 4.68640625 -3.7265625 3.9453125 C-2.52573166 2.5923402 -1.2791655 1.2791655 0 0 Z " fill="#F4C6C2" transform="translate(991,122)"/>
<path d="M0 0 C0.33 0 0.66 0 1 0 C1 2.31 1 4.62 1 7 C-0.98 7 -2.96 7 -5 7 C-3.625 4.5 -3.625 4.5 -2 2 C-1.34 2 -0.68 2 0 2 C0 1.34 0 0.68 0 0 Z " fill="#FCFCFC" transform="translate(253,467)"/>
<path d="M0 0 C0.66 0.33 1.32 0.66 2 1 C-2.30769231 5.92307692 -2.30769231 5.92307692 -5.8125 6.3125 C-6.8953125 6.1578125 -6.8953125 6.1578125 -8 6 C-6.68 5.34 -5.36 4.68 -4 4 C-4 3.34 -4 2.68 -4 2 C-2.125 0.9375 -2.125 0.9375 0 0 Z " fill="#EFB9B3" transform="translate(272,468)"/>
<path d="M0 0 C0.66 0.33 1.32 0.66 2 1 C-1.28804981 3.91227269 -3.59885603 5.49701212 -8 6 C-8 5.34 -8 4.68 -8 4 C-6.71349294 3.30289269 -5.42059335 2.61757124 -4.125 1.9375 C-3.40570313 1.55464844 -2.68640625 1.17179687 -1.9453125 0.77734375 C-1.30335938 0.52082031 -0.66140625 0.26429688 0 0 Z " fill="#E68B83" transform="translate(471,364)"/>
<path d="M0 0 C1.125 3.75 1.125 3.75 0 6 C-0.66 6 -1.32 6 -2 6 C-2 4.68 -2 3.36 -2 2 C-1.34 2 -0.68 2 0 2 C0 1.34 0 0.68 0 0 Z M-6 7 C-5.01 7.33 -4.02 7.66 -3 8 C-3.99 8 -4.98 8 -6 8 C-6 7.67 -6 7.34 -6 7 Z " fill="#ECECEC" transform="translate(253,463)"/>
</svg>
