<?xml version="1.0" encoding="UTF-8" standalone="no"?>
<!DOCTYPE svg PUBLIC "-//W3C//DTD SVG 1.1//EN" "http://www.w3.org/Graphics/SVG/1.1/DTD/svg11.dtd">
<svg width="100%" height="100%" viewBox="0 0 678 101" version="1.1" xmlns="http://www.w3.org/2000/svg" xmlns:xlink="http://www.w3.org/1999/xlink" xml:space="preserve" xmlns:serif="http://www.serif.com/" style="fill-rule:evenodd;clip-rule:evenodd;stroke-linejoin:round;stroke-miterlimit:2;">
    <g transform="matrix(3.779424,0,0,3.779424,-242.078364,-387.187182)">
        <g transform="matrix(1.7701,0,0,-1.7701,-706.88,152.57)">
            <g>
                <clipPath id="_clip1">
                    <rect x="435.53" y="11.541" width="101.332" height="16.777"/>
                </clipPath>
                <g clip-path="url(#_clip1)">
                    <g transform="matrix(1,0,0,1,435.53,15.286)">
                        <path d="M0,0L1.835,1.524C2.426,0.622 3.545,0.124 4.603,0.124C5.302,0.124 6.406,0.327 6.406,1.198C6.406,1.882 5.707,2.193 4.929,2.488C3.374,3.048 1.523,3.67 1.523,5.753C1.523,8.102 3.374,9.454 5.753,9.454C7.339,9.454 8.91,9.035 9.874,7.604L8.132,6.236C7.651,6.904 6.717,7.324 5.893,7.324C5.116,7.324 4.183,7.106 4.183,6.251C4.183,5.489 5.427,5.194 6.313,4.821C7.635,4.339 9.174,3.546 9.174,1.741C9.174,-0.917 6.873,-2.006 4.572,-2.006C2.83,-2.006 1.104,-1.539 0,0" style="fill:rgb(206,15,104);fill-rule:nonzero;"/>
                    </g>
                    <g transform="matrix(1,0,0,1,449.45,22.377)">
                        <path d="M0,0L-3.141,0L-2.752,2.177L6.267,2.177L5.878,0L2.737,0L1.166,-8.91L-1.57,-8.91L0,0Z" style="fill:rgb(206,15,104);fill-rule:nonzero;"/>
                    </g>
                    <g transform="matrix(1,0,0,1,458.98,24.57)">
                        <path d="M0,0L2.924,0L4.82,-11.103L2.099,-11.103L1.788,-9.019L-2.177,-9.019L-3.234,-11.103L-5.878,-11.103L0,0ZM1.509,-6.889L0.918,-2.721L0.871,-2.721L-1.166,-6.889L1.509,-6.889Z" style="fill:rgb(206,15,104);fill-rule:nonzero;"/>
                    </g>
                    <g transform="matrix(1,0,0,1,467.1,24.554)">
                        <path d="M0,0L4.665,0C6.531,0 8.195,-0.933 8.195,-3.141C8.195,-4.898 7.106,-6.313 5.443,-6.733L7.138,-11.087L4.245,-11.087L2.877,-7.153L1.447,-7.153L0.762,-11.087L-1.959,-11.087L0,0ZM3.546,-5.132C4.634,-5.132 5.489,-4.525 5.489,-3.406C5.489,-2.457 4.836,-2.13 4.074,-2.13L2.333,-2.13L1.804,-5.132L3.546,-5.132Z" style="fill:rgb(206,15,104);fill-rule:nonzero;"/>
                    </g>
                    <g transform="matrix(1,0,0,1,476.39,16.5)">
                        <path d="M0,0C0,0.28 0.031,0.559 0.078,0.824C0.186,1.431 0.544,3.452 0.637,4.043C1.12,6.687 3.437,8.241 6.033,8.241C8.132,8.241 10.108,7.262 10.108,4.914C10.108,4.619 10.076,4.338 10.029,4.058C9.921,3.514 9.579,1.539 9.485,0.98C9.003,-1.695 6.687,-3.219 4.074,-3.219C2.006,-3.219 0,-2.364 0,0M6.733,0.886C6.842,1.477 7.215,3.592 7.324,4.183C7.34,4.307 7.355,4.447 7.355,4.572C7.355,5.551 6.562,6.018 5.66,6.018C4.479,6.018 3.608,5.334 3.405,4.152C3.296,3.561 2.923,1.477 2.814,0.886C2.799,0.746 2.783,0.622 2.783,0.482C2.783,-0.529 3.561,-0.98 4.479,-0.98C5.629,-0.98 6.531,-0.264 6.733,0.886" style="fill:rgb(206,15,104);fill-rule:nonzero;"/>
                    </g>
                    <g transform="matrix(1,0,0,1,486.66,15.286)">
                        <path d="M0,0L1.835,1.524C2.426,0.622 3.546,0.124 4.603,0.124C5.303,0.124 6.407,0.327 6.407,1.198C6.407,1.882 5.707,2.193 4.93,2.488C3.374,3.048 1.524,3.67 1.524,5.753C1.524,8.102 3.374,9.454 5.753,9.454C7.34,9.454 8.911,9.035 9.875,7.604L8.133,6.236C7.651,6.904 6.717,7.324 5.893,7.324C5.116,7.324 4.183,7.106 4.183,6.251C4.183,5.489 5.427,5.194 6.314,4.821C7.635,4.339 9.175,3.546 9.175,1.741C9.175,-0.917 6.873,-2.006 4.572,-2.006C2.83,-2.006 1.104,-1.539 -0,0" style="fill:rgb(206,15,104);fill-rule:nonzero;"/>
                    </g>
                    <g transform="matrix(1,0,0,1,500.58,22.377)">
                        <path d="M0,0L-3.141,0L-2.752,2.177L6.267,2.177L5.878,0L2.737,0L1.166,-8.91L-1.57,-8.91L0,0Z" style="fill:rgb(206,15,104);fill-rule:nonzero;"/>
                    </g>
                    <g transform="matrix(1,0,0,1,506.47,16.5)">
                        <path d="M0,0C0,0.28 0.031,0.559 0.078,0.824C0.186,1.431 0.544,3.452 0.637,4.043C1.12,6.687 3.437,8.241 6.033,8.241C8.132,8.241 10.107,7.262 10.107,4.914C10.107,4.619 10.076,4.338 10.029,4.058C9.921,3.514 9.579,1.539 9.486,0.98C9.003,-1.695 6.687,-3.219 4.074,-3.219C2.006,-3.219 0,-2.364 0,0M6.733,0.886C6.842,1.477 7.215,3.592 7.324,4.183C7.34,4.307 7.355,4.447 7.355,4.572C7.355,5.551 6.562,6.018 5.66,6.018C4.478,6.018 3.608,5.334 3.405,4.152C3.296,3.561 2.923,1.477 2.814,0.886C2.799,0.746 2.783,0.622 2.783,0.482C2.783,-0.529 3.561,-0.98 4.478,-0.98C5.629,-0.98 6.531,-0.264 6.733,0.886" style="fill:rgb(206,15,104);fill-rule:nonzero;"/>
                    </g>
                    <g transform="matrix(1,0,0,1,517.74,24.554)">
                        <path d="M0,0L2.737,0L3.53,-7.837L3.607,-7.837L7.215,0L9.875,0L4.338,-11.103L1.555,-11.103L0,0Z" style="fill:rgb(206,15,104);fill-rule:nonzero;"/>
                    </g>
                    <g transform="matrix(1,0,0,1,528.76,24.554)">
                        <path d="M0,0L8.102,0L7.713,-2.208L2.333,-2.208L1.944,-4.385L6.469,-4.385L6.08,-6.593L1.555,-6.593L1.151,-8.863L6.562,-8.863L6.174,-11.087L-1.959,-11.087L0,0ZM5.178,3.763L7.713,3.763L5.054,0.98L3.297,0.98L5.178,3.763Z" style="fill:rgb(206,15,104);fill-rule:nonzero;"/>
                    </g>
                    <g transform="matrix(1,0,0,1,533.86,28.223)">
                        <path d="M0,0L-1.882,-2.783L-0.124,-2.783L2.534,0L0,0Z" style="fill:rgb(206,15,104);fill-rule:nonzero;"/>
                    </g>
                </g>
            </g>
        </g>
    </g>
</svg>
